<svg width="24" height="40" viewBox="0 0 24 40" fill="none" xmlns="http://www.w3.org/2000/svg">
<path d="M20 17.9871C20 23.0126 14.461 28.2465 12.601 29.8629C12.4277 29.9941 12.2168 30.065 12 30.065C11.7832 30.065 11.5723 29.9941 11.399 29.8629C9.539 28.2465 4 23.0126 4 17.9871C4 15.8516 4.84285 13.8035 6.34315 12.2935C7.84344 10.7834 9.87827 9.93506 12 9.93506C14.1217 9.93506 16.1566 10.7834 17.6569 12.2935C19.1571 13.8035 20 15.8516 20 17.9871Z" stroke="white" stroke-width="2" stroke-linecap="round" stroke-linejoin="round"/>
<path d="M11.9995 21.0063C13.6561 21.0063 14.9991 19.6544 14.9991 17.9868C14.9991 16.3192 13.6561 14.9673 11.9995 14.9673C10.3429 14.9673 9 16.3192 9 17.9868C9 19.6544 10.3429 21.0063 11.9995 21.0063Z" stroke="white" stroke-width="2" stroke-linecap="round" stroke-linejoin="round"/>
</svg>
